<?xml version="1.0" standalone="no"?>
<!DOCTYPE svg PUBLIC "-//W3C//DTD SVG 20010904//EN"
 "http://www.w3.org/TR/2001/REC-SVG-20010904/DTD/svg10.dtd">
<svg version="1.0" xmlns="http://www.w3.org/2000/svg"
 width="166.000000pt" height="166.000000pt" viewBox="0 0 166.000000 166.000000"
 preserveAspectRatio="xMidYMid meet">
<metadata>
Created by potrace 1.14, written by Peter Selinger 2001-2017
</metadata>
<g transform="translate(0.000000,166.000000) scale(0.100000,-0.100000)"
fill="#000000" stroke="none">
<path d="M662 1487 c117 -309 522 -1354 528 -1362 8 -9 356 -12 365 -3 2 2 -2
17 -10 33 -12 27 -53 135 -60 160 -7 26 -29 86 -229 635 l-212 585 -201 2
-201 2 20 -52z"/>
<path d="M582 1373 c-22 -64 -223 -619 -237 -655 -6 -15 10 -16 169 -15 l175
1 48 140 48 141 -76 195 c-42 107 -83 210 -90 228 l-14 33 -23 -68z"/>
<path d="M314 625 c2 -5 20 -53 41 -105 41 -105 46 -119 68 -170 8 -19 29 -73
47 -119 l33 -84 19 37 c80 156 309 228 470 148 32 -16 58 -26 58 -23 0 4 -24
78 -53 166 l-54 160 -317 0 c-213 0 -315 -3 -312 -10z"/>
<path d="M258 473 c-9 -27 -41 -117 -72 -202 -31 -84 -56 -154 -56 -155 0 -4
301 2 305 6 6 6 -148 398 -156 398 -3 0 -13 -21 -21 -47z"/>
</g>
</svg>
